<?xml version="1.0" encoding="utf-8"?>
<!-- Generator: Adobe Illustrator 15.0.0, SVG Export Plug-In . SVG Version: 6.00 Build 0)  -->
<!DOCTYPE svg PUBLIC "-//W3C//DTD SVG 1.1//EN" "http://www.w3.org/Graphics/SVG/1.1/DTD/svg11.dtd">
<svg version="1.1"
	 id="svg2" inkscape:output_extension="org.inkscape.output.svg.inkscape" inkscape:version="0.46+pre4" sodipodi:docname="man silhouette.svg" sodipodi:version="0.32" xmlns:rdf="http://www.w3.org/1999/02/22-rdf-syntax-ns#" xmlns:cc="http://creativecommons.org/ns#" xmlns:svg="http://www.w3.org/2000/svg" xmlns:sodipodi="http://sodipodi.sourceforge.net/DTD/sodipodi-0.dtd" xmlns:inkscape="http://www.inkscape.org/namespaces/inkscape" xmlns:dc="http://purl.org/dc/elements/1.1/"
	 xmlns="http://www.w3.org/2000/svg" xmlns:xlink="http://www.w3.org/1999/xlink" x="0px" y="0px" width="638.774px"
	 height="604.184px" viewBox="52.661 183.306 638.774 604.184" enable-background="new 52.661 183.306 638.774 604.184"
	 xml:space="preserve">
<defs>
	
	
		<inkscape:perspective  sodipodi:type="inkscape:persp3d" inkscape:vp_x="0 : 526.18109 : 1" inkscape:vp_z="744.09448 : 526.18109 : 1" inkscape:vp_y="0 : 1000 : 0" inkscape:persp3d-origin="372.04724 : 350.78739 : 1" id="perspective10">
		</inkscape:perspective>
	
		<inkscape:perspective  sodipodi:type="inkscape:persp3d" inkscape:vp_x="0 : 526.18109 : 1" inkscape:vp_z="744.09448 : 526.18109 : 1" inkscape:vp_y="0 : 1000 : 0" inkscape:persp3d-origin="372.04724 : 350.78739 : 1" id="perspective2390">
		</inkscape:perspective>
</defs>
<sodipodi:namedview  id="base" bordercolor="#666666" borderopacity="1.0" objecttolerance="10" inkscape:cx="-23.571429" gridtolerance="10000" guidetolerance="10" inkscape:cy="520" inkscape:pageopacity="0.0" inkscape:pageshadow="2" inkscape:zoom="0.35" inkscape:document-units="px" inkscape:current-layer="layer1" showgrid="false" inkscape:window-width="1280" inkscape:window-height="975" inkscape:window-x="-4" inkscape:window-y="-4" pagecolor="#ffffff">
	</sodipodi:namedview>
<g id="layer1" inkscape:groupmode="layer" inkscape:label="Layer 1">
	<path id="path2396" fill="#707070" d="M52.661,778.046c0-10.651,17.739-102.203,20.745-107.065
		c1.071-1.734,3.732-12.961,5.913-24.949c5.087-27.965,14.467-58.014,19.987-64.031c2.374-2.588,23.671-8.738,47.328-13.668
		c72.675-15.146,104.705-26.811,120.519-43.894c7.538-8.144,18.938-16.63,25.333-18.858c10.161-3.542,11.628-5.796,11.628-17.863
		c0-7.596-2.322-17.142-5.159-21.213c-2.837-4.072-6.408-15.003-7.933-24.292c-1.526-9.289-5.96-19.91-9.854-23.603
		c-3.893-3.692-7.079-8.405-7.079-10.474c0-2.067-3.8-8.897-8.444-15.18c-7.203-9.743-8.513-16.479-8.915-45.823
		c-0.775-56.693,4.084-82.636,19.961-106.555c22.417-33.773,65.708-57.165,105.994-57.272c15.742-0.042,22.357,1.783,28.968,7.993
		c4.991,4.689,16.723,9.337,28.11,11.137c22.66,3.582,43.041,17.972,52.937,37.377c4.975,9.756,6.562,22.121,6.565,51.116
		c0.004,21.443,1.656,39.266,3.761,40.566c10.205,6.308,0.686,49.886-15.324,70.149c-6.021,7.619-10.984,16.907-11.029,20.642
		s-3.424,14.149-7.506,23.147c-13.561,29.886-8.895,59.462,10.426,66.082c3.601,1.233,12.455,9.845,19.681,19.133
		c7.225,9.291,17.358,17.846,22.52,19.012s28.303,9.557,51.428,18.643c23.125,9.088,43.172,16.521,44.549,16.521
		c1.378,0,9.82,4.645,18.763,10.322c15.979,10.145,24.123,23.686,24.123,40.11c0,4.416,3.494,14.72,7.762,22.896
		c6.869,13.158,11.545,38.395,21.006,113.385l2.014,15.951h-319.39H52.661V778.046z"/>
</g>
<rect x="251.047" y="606.681" fill="none" width="242" height="133"/>
<text transform="matrix(1 0 0 1 252.3052 697.5605)" fill="#FFFFFF" font-family="'MyriadPro-Regular'" font-size="128">You!</text>
</svg>
